{"title":"Dark Skies (2013) BDRip 720p &amp;ndash; MediaClub","uid":11762315,"size":4337003478,"categoryP":"video","categoryS":"hd___movies","magnet":"?xt=urn:btih:4a816016211e4ff20d997b4561f39870f7299e14&amp;dn=Dark+Skies+%282013%29+BDRip+720p+%26ndash%3B+MediaClub&amp;tr=udp%3A%2F%2Ftracker.openbittorrent.com%3A80&amp;tr=udp%3A%2F%2Fopen.demonii.com%3A1337&amp;tr=udp%3A%2F%2Ftracker.coppersurfer.tk%3A6969&amp;tr=udp%3A%2F%2Fexodus.desync.com%3A6969","seeders":6,"leechers":0,"uploader":"neni69","files":1,"time":1426620262,"description":" &lt;a href=&quot; http://mediaclub.tv/&quot; rel=&quot;nofollow&quot; target=&quot;_NEW&quot;&gt; http://mediaclub.tv/&lt;/a&gt;   Welcome to MediaClub\n\n===================================================================\n\nFormat                  : Matroska\nFormat version              : Version 2\nFile size                : 4.04 GiB\nDuration                 : 1h 37mn\nOverall bit rate             : 5 952 Kbps\nEncoded date               : UTC 2015-03-17 15:46:06\nWriting application           : mkvmerge v5.5.0 ('Healer') built on Apr 6 2012 21:43:24\nWriting library             : libebml v1.2.3 + libmatroska v1.3.0\n\nVideo\nID                    : 1\nFormat                  : AVC\nFormat/Info               : Advanced Video Codec\nFormat profile              : &lt;a class=&quot;__cf_email__&quot; href=&quot;/cdn-cgi/l/email-protection&quot; data-cfemail=&quot;662e0f010e262a524857&quot;&gt;[email&amp;#160;protected]&lt;/a&gt;&lt;script cf-hash='f9e31' type=&quot;text/javascript&quot;&gt;\n/* &lt;![CDATA[ */!function(){try{var t=&quot;currentScript&quot;in document?document.currentScript:function(){for(var t=document.getElementsByTagName(&quot;script&quot;),e=t.length;e--;)if(t[e].getAttribute(&quot;cf-hash&quot;))return t[e]}();if(t&amp;&amp;t.previousSibling){var e,r,n,i,c=t.previousSibling,a=c.getAttribute(&quot;data-cfemail&quot;);if(a){for(e=&quot;&quot;,r=parseInt(a.substr(0,2),16),n=2;a.length-n;n+=2)i=parseInt(a.substr(n,2),16)^r,e+=String.fromCharCode(i);e=document.createTextNode(e),c.parentNode.replaceChild(e,c)}}}catch(u){}}();/* ]]&gt; */&lt;/script&gt;\nFormat settings, CABAC          : Yes\nFormat settings, ReFrames        : 12 frames\nCodec ID                 : V_MPEG4/ISO/AVC\nDuration                 : 1h 37mn\nBit rate                 : 4 874 Kbps\nWidth                  : 1 280 pixels\nHeight                  : 534 pixels\nDisplay aspect ratio           : 2.40:1\nFrame rate mode             : Constant\nFrame rate                : 23.976 fps\nColor space               : YUV\nChroma subsampling            : 4:2:0\nBit depth                : 8 bits\nScan type                : Progressive\nBits/(Pixel*Frame)            : 0.297\nStream size               : 3.31 GiB (82%)\nTitle                  : Dark Skies (2013)\nWriting library             : x264 core 140 r2377 1ca7bb9\nEncoding settings            : cabac=1 / ref=12 / deblock=1:-3:-3 / analyse=0x3:0x133 / me=tesa / subme=10 / psy=1 / psy_rd=0.95:0.00 / mixed_ref=1 / me_range=24 / chroma_me=1 / trellis=2 / 8x8dct=1 / cqm=0 / deadzone=21,11 / fast_pskip=0 / chroma_qp_offset=-2 / threads=12 / lookahead_threads=2 / sliced_threads=0 / nr=0 / decimate=0 / interlaced=0 / bluray_compat=0 / constrained_intra=0 / bframes=8 / b_pyramid=2 / b_adapt=2 / b_bias=0 / direct=3 / weightb=1 / open_gop=0 / weightp=2 / keyint=240 / keyint_min=23 / scenecut=40 / intra_refresh=0 / rc_lookahead=60 / rc=crf / mbtree=0 / crf=14.8 / qcomp=0.60 / qpmin=0 / qpmax=69 / qpstep=4 / vbv_maxrate=62500 / vbv_bufsize=78125 / crf_max=0.0 / nal_hrd=none / filler=0 / ip_ratio=1.20 / pb_ratio=1.10 / aq=1:0.80\nLanguage                 : English\nDefault                 : Yes\nForced                  : No\n\nAudio #1\nID                    : 2\nFormat                  : AC-3\nFormat/Info               : Audio Coding 3\nMode extension              : CM (complete main)\nFormat settings, Endianness       : Big\nCodec ID                 : A_AC3\nDuration                 : 1h 37mn\nBit rate mode              : Constant\nBit rate                 : 384 Kbps\nChannel count              : 6 channels\nChannel positions            : Front: L C R, Side: L R, LFE\nSampling rate              : 48.0 KHz\nBit depth                : 16 bits\nCompression mode             : Lossy\nStream size               : 267 MiB (6%)\nTitle                  : Russian\nLanguage                 : Russian\nDefault                 : Yes\nForced                  : No\n\nAudio #2\nID                    : 3\nFormat                  : AC-3\nFormat/Info               : Audio Coding 3\nMode extension              : CM (complete main)\nFormat settings, Endianness       : Big\nCodec ID                 : A_AC3\nDuration                 : 1h 37mn\nBit rate mode              : Constant\nBit rate                 : 384 Kbps\nChannel count              : 6 channels\nChannel positions            : Front: L C R, Side: L R, LFE\nSampling rate              : 48.0 KHz\nBit depth                : 16 bits\nCompression mode             : Lossy\nStream size               : 267 MiB (6%)\nTitle                  : English\nLanguage                 : English\nDefault                 : No\nForced                  : No\n\nAudio #3\nID                    : 4\nFormat                  : AC-3\nFormat/Info               : Audio Coding 3\nMode extension              : CM (complete main)\nFormat settings, Endianness       : Big\nCodec ID                 : A_AC3\nDuration                 : 1h 37mn\nBit rate mode              : Constant\nBit rate                 : 192 Kbps\nChannel count              : 2 channels\nChannel positions            : Front: L R\nSampling rate              : 48.0 KHz\nBit depth                : 16 bits\nCompression mode             : Lossy\nStream size               : 133 MiB (3%)\nTitle                  : commentary\nLanguage                 : English\nDefault                 : No\nForced                  : No\n\nText #1\nID                    : 5\nFormat                  : UTF-8\nCodec ID                 : S_TEXT/UTF8\nCodec ID/Info              : UTF-8 Plain Text\nTitle                  : Russian\nLanguage                 : Russian\nDefault                 : No\nForced                  : No\n\nText #2\nID                    : 6\nFormat                  : UTF-8\nCodec ID                 : S_TEXT/UTF8\nCodec ID/Info              : UTF-8 Plain Text\nTitle                  : English\nLanguage                 : English\nDefault                 : No\nForced                  : No\n\nText #3\nID                    : 7\nFormat                  : UTF-8\nCodec ID                 : S_TEXT/UTF8\nCodec ID/Info              : UTF-8 Plain Text\nTitle                  : English SDH\nLanguage                 : English\nDefault                 : No\nForced                  : No\n\nMenu\n00:00:00.000               : en:00:00:00.000\n00:04:21.470               : en:00:04:21.470\n00:08:22.210               : en:00:08:22.210\n00:14:43.716               : en:00:14:43.716\n00:18:52.131               : en:00:18:52.131\n00:24:34.014               : en:00:24:34.014\n00:29:52.916               : en:00:29:52.916\n00:36:28.144               : en:00:36:28.144\n00:40:32.430               : en:00:40:32.430\n00:45:40.404               : en:00:45:40.404\n00:52:14.548               : en:00:52:14.548\n00:59:41.244               : en:00:59:41.244\n01:05:08.196               : en:01:05:08.196\n01:11:59.482               : en:01:11:59.482\n01:17:07.248               : en:01:17:07.248\n01:22:48.172               : en:01:22:48.172\n01:29:07.050               : en:01:29:07.050\n01:33:03.244               : en:01:33:03.244","torrent":{"xt":"urn:btih:4a816016211e4ff20d997b4561f39870f7299e14","amp;dn":"Dark+Skies+%282013%29+BDRip+720p+%26ndash%3B+MediaClub","amp;tr":["udp%3A%2F%2Ftracker.openbittorrent.com%3A80","udp%3A%2F%2Fopen.demonii.com%3A1337","udp%3A%2F%2Ftracker.coppersurfer.tk%3A6969","udp%3A%2F%2Fexodus.desync.com%3A6969"],"infoHash":"4a816016211e4ff20d997b4561f39870f7299e14","infoHashBuffer":{"type":"Buffer","data":[74,129,96,22,33,30,79,242,13,153,123,69,97,243,152,112,247,41,158,20]},"announce":[],"urlList":[]}}